<svg id="Layer_1" data-name="Layer 1" xmlns="http://www.w3.org/2000/svg" viewBox="0 0 64 64"><defs><style>.cls-1{fill:#23ab70;}</style></defs><title>setting-panel</title><g id="setting-panel"><path class="cls-1" d="M41.82,43a1,1,0,0,1-1-.67,2,2,0,0,0-3.74,0,1,1,0,0,1-1.89-.66,4,4,0,0,1,7.52,0,1,1,0,0,1-.61,1.27A1,1,0,0,1,41.82,43Z"/><path class="cls-1" d="M53.82,43a1,1,0,0,1-1-.67,2,2,0,0,0-3.74,0,1,1,0,0,1-1.89-.66,4,4,0,0,1,7.52,0,1,1,0,0,1-.61,1.27A1,1,0,0,1,53.82,43Z"/><path class="cls-1" d="M45,52a4,4,0,0,1-3.76-2.67,1,1,0,0,1,1.89-.66,2,2,0,0,0,3.74,0,1,1,0,0,1,1.89.66A4,4,0,0,1,45,52Z"/><path class="cls-1" d="M14,14a2,2,0,0,0-1-1.72V11a1,1,0,0,0-2,0v1.28a2,2,0,0,0,0,3.44V27a1,1,0,0,0,2,0V15.72A2,2,0,0,0,14,14Z"/><path class="cls-1" d="M20,22a2,2,0,0,0-1-1.72V11a1,1,0,0,0-2,0v9.28a2,2,0,0,0,0,3.44V27a1,1,0,0,0,2,0V23.72A2,2,0,0,0,20,22Z"/><path class="cls-1" d="M26,16a2,2,0,0,0-1-1.72V11a1,1,0,0,0-2,0v3.28a2,2,0,0,0,0,3.44V27a1,1,0,0,0,2,0V17.72A2,2,0,0,0,26,16Z"/><path class="cls-1" d="M37,16H33a3,3,0,0,1,0-6h4a3,3,0,0,1,0,6Zm-4-4a1,1,0,0,0,0,2h4a1,1,0,0,0,0-2Z"/><path class="cls-1" d="M37,24H33a3,3,0,0,1,0-6h4a3,3,0,0,1,0,6Zm-4-4a1,1,0,0,0,0,2h4a1,1,0,0,0,0-2Z"/><path class="cls-1" d="M23,40h-.6a5.4,5.4,0,0,0-.87-2.11l.42-.43a1,1,0,1,0-1.41-1.41l-.43.42A5.4,5.4,0,0,0,18,35.6V35a1,1,0,0,0-2,0v.6a5.4,5.4,0,0,0-2.11.87l-.43-.42a1,1,0,1,0-1.41,1.41l.42.43A5.4,5.4,0,0,0,11.6,40H11a1,1,0,0,0,0,2h.6a5.4,5.4,0,0,0,.87,2.11l-.42.43a1,1,0,0,0,0,1.41,1,1,0,0,0,.71.29,1,1,0,0,0,.7-.29l.43-.42A5.4,5.4,0,0,0,16,46.4V47a1,1,0,0,0,2,0v-.6a5.4,5.4,0,0,0,2.11-.87l.43.42a1,1,0,0,0,.7.29A1,1,0,0,0,22,46a1,1,0,0,0,0-1.41l-.42-.43A5.4,5.4,0,0,0,22.4,42H23a1,1,0,0,0,0-2Zm-6,4.5A3.5,3.5,0,1,1,20.5,41,3.5,3.5,0,0,1,17,44.5Z"/><path class="cls-1" d="M17,43a2,2,0,1,1,2-2A2,2,0,0,1,17,43Zm0-2Z"/><path class="cls-1" d="M46,30.05V7a3,3,0,0,0-3-3H7A3,3,0,0,0,4,7V51a3,3,0,0,0,3,3H33A15,15,0,1,0,46,30.05ZM7,52a1,1,0,0,1-1-1V7A1,1,0,0,1,7,6H43a1,1,0,0,1,1,1V30.05A15,15,0,0,0,31.74,52Zm38,6A13,13,0,1,1,58,45,13,13,0,0,1,45,58Z"/></g></svg>